<?xml version="1.0" encoding="UTF-8"?><svg xmlns="http://www.w3.org/2000/svg" viewBox="0 0 6 6"><defs><style>.cls-1{fill:aqua;}.cls-2{mix-blend-mode:darken;opacity:.61;}.cls-3{opacity:.83;}.cls-3,.cls-4{mix-blend-mode:multiply;}.cls-4{opacity:.79;}.cls-5{isolation:isolate;}.cls-6{fill:#f0f;}.cls-7{fill:#4975ae;}.cls-8{fill:#ff0;}</style></defs><g class="cls-5"><g id="Layer_2"><path class="cls-7" d="M3.52,4.11c.21-.12.35-.31.35-.52,0-.14-.06-.28-.17-.39.27.14.44.35.44.6,0,.21-.12.39-.33.53.33-.16.54-.42.54-.71,0-.08-.02-.15-.04-.23.03.01.07.03.11.04h0s.11.06.14.1c.05.06.1.15.1.22,0,.07-.16.22-.16.22,0,0,.23-.16.26-.22.02-.04-.02-.16-.04-.21.55.22,1.25.49,1.25.49l-2.74-1.47-.22-2.23-.22,2.23L.04,4.04s.7-.27,1.25-.49c-.02.05-.06.17-.04.21.03.05.26.22.26.22,0,0-.16-.15-.16-.22,0-.06.05-.16.1-.22.03-.04.14-.1.14-.1h0s.07-.03.1-.04c-.03.07-.04.15-.04.23,0,.29.21.55.54.71-.2-.14-.33-.32-.33-.53,0-.24.17-.46.44-.6-.11.11-.17.24-.17.39,0,.21.14.4.35.52-.13-.1-.21-.23-.21-.38,0-.3.33-.55.73-.55s.73.24.73.55c0,.15-.08.28-.21.38Z"/><circle class="cls-7" cx="3" cy="3.67" r=".33"/><polygon class="cls-7" points="4.31 2.96 3.69 2.33 3.21 1.09 3.37 2.5 4.31 2.96"/><polygon class="cls-7" points="2.79 1.09 2.3 2.33 1.69 2.96 2.63 2.5 2.79 1.09"/><polygon class="cls-7" points="1.03 3.81 1.38 4.35 1.48 4.2 1.03 3.81"/><path class="cls-7" d="M1.44,4.39l.7.18s-.02.08-.02.08h.28s-.88-.42-.88-.42l-.09.16Z"/><polygon class="cls-7" points="4.62 4.35 4.97 3.81 4.52 4.2 4.62 4.35"/><path class="cls-7" d="M4.56,4.39l-.09-.16-.88.42h.28s-.04-.03-.02-.07l.7-.18Z"/><path class="cls-7" d="M2.87,4.05l.13,1.58.13-1.58s-.08.02-.13.02-.09,0-.13-.02Z"/><path class="cls-7" d="M3.14,5.21c-.1.12-.14.08-.14.08,0,0-.04.04-.14-.08.01.1.14.43.14.43,0,0,.13-.33.14-.43Z"/><g class="cls-2"><path class="cls-8" d="M3.48,4.1c.21-.12.35-.31.35-.52,0-.14-.06-.28-.17-.39.27.14.44.35.44.6,0,.21-.12.39-.33.53.33-.16.54-.42.54-.71,0-.08-.02-.15-.04-.23.03.01.07.03.11.04h0s.11.06.14.1c.05.06.1.15.1.22,0,.07-.16.22-.16.22,0,0,.23-.16.26-.22.02-.04-.02-.16-.04-.21.55.22,1.25.49,1.25.49l-2.74-1.47-.22-2.23-.22,2.23-2.74,1.47s.7-.27,1.25-.49c-.02.05-.06.17-.04.21.03.05.26.22.26.22,0,0-.16-.15-.16-.22,0-.06.05-.16.1-.22.03-.04.14-.1.14-.1h0s.07-.03.1-.04c-.03.07-.04.15-.04.23,0,.29.21.55.54.71-.2-.14-.33-.32-.33-.53,0-.24.17-.46.44-.6-.11.11-.17.24-.17.39,0,.21.14.4.35.52-.13-.1-.21-.23-.21-.38,0-.3.33-.55.73-.55s.73.24.73.55c0,.15-.08.28-.21.38Z"/><circle class="cls-8" cx="2.96" cy="3.66" r=".33"/><polygon class="cls-8" points="4.27 2.94 3.65 2.31 3.17 1.07 3.33 2.49 4.27 2.94"/><polygon class="cls-8" points="2.74 1.07 2.26 2.31 1.65 2.94 2.59 2.49 2.74 1.07"/><polygon class="cls-8" points=".99 3.8 1.34 4.34 1.44 4.19 .99 3.8"/><path class="cls-8" d="M1.4,4.38l.7.18s-.02.08-.02.08h.28s-.88-.42-.88-.42l-.09.16Z"/><polygon class="cls-8" points="4.58 4.34 4.93 3.8 4.48 4.19 4.58 4.34"/><path class="cls-8" d="M4.52,4.37l-.09-.16-.88.42h.28s-.04-.03-.02-.07l.7-.18Z"/><path class="cls-8" d="M2.83,4.04l.13,1.58.13-1.58s-.08.02-.13.02-.09,0-.13-.02Z"/><path class="cls-8" d="M3.1,5.19c-.1.12-.14.08-.14.08,0,0-.04.04-.14-.08.01.1.14.43.14.43,0,0,.13-.33.14-.43Z"/></g><g class="cls-3"><path class="cls-1" d="M3.5,4.12c.21-.12.35-.31.35-.52,0-.14-.06-.28-.17-.39.27.14.44.35.44.6,0,.21-.12.39-.33.53.33-.16.54-.42.54-.71,0-.08-.02-.15-.04-.23.03.01.07.03.11.04h0s.11.06.14.1c.05.06.1.15.1.22,0,.07-.16.22-.16.22,0,0,.23-.16.26-.22.02-.04-.02-.16-.04-.21.55.22,1.25.49,1.25.49l-2.74-1.47-.22-2.23-.22,2.23L.02,4.05s.7-.27,1.25-.49c-.02.05-.06.17-.04.21.03.05.26.22.26.22,0,0-.16-.15-.16-.22,0-.06.05-.16.1-.22.03-.04.14-.1.14-.1h0s.07-.03.1-.04c-.03.07-.04.15-.04.23,0,.29.21.55.54.71-.2-.14-.33-.32-.33-.53,0-.24.17-.46.44-.6-.11.11-.17.24-.17.39,0,.21.14.4.35.52-.13-.1-.21-.23-.21-.38,0-.3.33-.55.73-.55s.73.24.73.55c0,.15-.08.28-.21.38Z"/><circle class="cls-1" cx="2.98" cy="3.68" r=".33"/><polygon class="cls-1" points="4.29 2.96 3.67 2.33 3.19 1.09 3.35 2.51 4.29 2.96"/><polygon class="cls-1" points="2.76 1.09 2.28 2.33 1.67 2.96 2.61 2.51 2.76 1.09"/><polygon class="cls-1" points="1.01 3.82 1.36 4.36 1.46 4.21 1.01 3.82"/><path class="cls-1" d="M1.42,4.39l.7.18s-.02.08-.02.08h.28s-.88-.42-.88-.42l-.09.16Z"/><polygon class="cls-1" points="4.6 4.36 4.95 3.81 4.5 4.21 4.6 4.36"/><path class="cls-1" d="M4.54,4.39l-.09-.16-.88.42h.28s-.04-.03-.02-.07l.7-.18Z"/><path class="cls-1" d="M2.85,4.06l.13,1.58.13-1.58s-.08.02-.13.02-.09,0-.13-.02Z"/><path class="cls-1" d="M3.12,5.21c-.1.12-.14.08-.14.08,0,0-.04.04-.14-.08.01.1.14.43.14.43,0,0,.13-.33.14-.43Z"/></g><g class="cls-4"><path class="cls-6" d="M3.56,4.15c.21-.12.35-.31.35-.52,0-.14-.06-.28-.17-.39.27.14.44.35.44.6,0,.21-.12.39-.33.53.33-.16.54-.42.54-.71,0-.08-.02-.15-.04-.23.03.01.07.03.11.04h0s.11.06.14.1c.05.06.1.15.1.22,0,.07-.16.22-.16.22,0,0,.23-.16.26-.22.02-.04-.02-.16-.04-.21.55.22,1.25.49,1.25.49l-2.74-1.47-.22-2.23-.22,2.23L.08,4.08s.7-.27,1.25-.49c-.02.05-.06.17-.04.21.03.05.26.22.26.22,0,0-.16-.15-.16-.22,0-.06.05-.16.1-.22.03-.04.14-.1.14-.1h0s.07-.03.1-.04c-.03.07-.04.15-.04.23,0,.29.21.55.54.71-.2-.14-.33-.32-.33-.53,0-.24.17-.46.44-.6-.11.11-.17.24-.17.39,0,.21.14.4.35.52-.13-.1-.21-.23-.21-.38,0-.3.33-.55.73-.55s.73.24.73.55c0,.15-.08.28-.21.38Z"/><circle class="cls-6" cx="3.04" cy="3.71" r=".33"/><polygon class="cls-6" points="4.35 2.99 3.73 2.36 3.25 1.12 3.41 2.54 4.35 2.99"/><polygon class="cls-6" points="2.83 1.12 2.34 2.36 1.73 2.99 2.67 2.54 2.83 1.12"/><polygon class="cls-6" points="1.07 3.85 1.42 4.39 1.52 4.24 1.07 3.85"/><path class="cls-6" d="M1.48,4.43l.7.18s-.02.08-.02.08h.28s-.88-.42-.88-.42l-.09.16Z"/><polygon class="cls-6" points="4.66 4.39 5.01 3.85 4.56 4.24 4.66 4.39"/><path class="cls-6" d="M4.6,4.42l-.09-.16-.88.42h.28s-.04-.03-.02-.07l.7-.18Z"/><path class="cls-6" d="M2.91,4.09l.13,1.58.13-1.58s-.08.02-.13.02-.09,0-.13-.02Z"/><path class="cls-6" d="M3.18,5.24c-.1.12-.14.08-.14.08,0,0-.04.04-.14-.08.01.1.14.43.14.43,0,0,.13-.33.14-.43Z"/></g></g></g></svg>