<?xml version="1.0" encoding="UTF-8"?><svg id="Layer_2" xmlns="http://www.w3.org/2000/svg" viewBox="0 0 6 6"><defs><style>.cls-1{fill:#4975ad;}</style></defs><path class="cls-1" d="M3.52,4.11c.21-.12.35-.31.35-.52,0-.14-.06-.28-.17-.39.27.14.44.35.44.6,0,.21-.12.39-.33.53.33-.16.54-.42.54-.71,0-.08-.02-.15-.04-.23.03.01.07.03.11.04h0s.11.06.14.1c.05.06.1.15.1.22,0,.07-.16.22-.16.22,0,0,.23-.16.26-.22.02-.04-.02-.16-.04-.21.55.22,1.25.49,1.25.49l-2.74-1.47-.22-2.23-.22,2.23L.04,4.04s.7-.27,1.25-.49c-.02.05-.06.17-.04.21.03.05.26.22.26.22,0,0-.16-.15-.16-.22,0-.06.05-.16.1-.22.03-.04.14-.1.14-.1h0s.07-.03.1-.04c-.03.07-.04.15-.04.23,0,.29.21.55.54.71-.2-.14-.33-.32-.33-.53,0-.24.17-.46.44-.6-.11.11-.17.24-.17.39,0,.21.14.4.35.52-.13-.1-.21-.23-.21-.38,0-.3.33-.55.73-.55s.73.24.73.55c0,.15-.08.28-.21.38Z"/><circle class="cls-1" cx="3" cy="3.67" r=".33"/><polygon class="cls-1" points="4.31 2.96 3.69 2.33 3.21 1.09 3.37 2.5 4.31 2.96"/><polygon class="cls-1" points="2.79 1.09 2.3 2.33 1.69 2.96 2.63 2.5 2.79 1.09"/><polygon class="cls-1" points="1.03 3.81 1.38 4.35 1.48 4.2 1.03 3.81"/><path class="cls-1" d="M1.44,4.39l.7.18s-.02.08-.02.08h.28s-.88-.42-.88-.42l-.09.16Z"/><polygon class="cls-1" points="4.62 4.35 4.97 3.81 4.52 4.2 4.62 4.35"/><path class="cls-1" d="M4.56,4.39l-.09-.16-.88.42h.28s-.04-.03-.02-.07l.7-.18Z"/><path class="cls-1" d="M2.87,4.05l.13,1.58.13-1.58s-.08.02-.13.02-.09,0-.13-.02Z"/><path class="cls-1" d="M3.14,5.21c-.1.12-.14.08-.14.08,0,0-.04.04-.14-.08.01.1.14.43.14.43,0,0,.13-.33.14-.43Z"/></svg>